<?xml version="1.0" standalone="no"?>
<!DOCTYPE svg PUBLIC "-//W3C//DTD SVG 20010904//EN"
 "http://www.w3.org/TR/2001/REC-SVG-20010904/DTD/svg10.dtd">
<svg version="1.0" xmlns="http://www.w3.org/2000/svg"
 width="300.000000pt" height="133.000000pt" viewBox="0 0 300.000000 133.000000"
 preserveAspectRatio="xMidYMid meet">
<metadata>
Created by potrace 1.10, written by Peter Selinger 2001-2011
</metadata>
<g transform="translate(0.000000,133.000000) scale(0.100000,-0.100000)"
fill="#000000" stroke="none">
<path d="M1634 1193 c-147 -110 -157 -119 -144 -142 14 -27 13 -31 -10 -31
-27 0 -117 -37 -154 -63 -32 -23 -31 -25 -10 28 2 6 -8 17 -23 25 -16 9 -54
31 -85 49 l-58 32 -27 -55 c-15 -31 -30 -56 -34 -56 -4 0 -10 14 -14 30 -4 17
-9 30 -12 30 -16 0 -212 -83 -209 -88 2 -4 9 -26 15 -49 9 -33 15 -40 31 -36
14 4 20 -1 24 -18 3 -13 15 -62 26 -108 11 -46 20 -87 20 -91 0 -5 -17 -6 -39
-3 -21 3 -47 1 -57 -5 -18 -9 -19 -5 -19 73 0 94 -14 124 -76 160 -49 29 -195
27 -304 -4 -64 -18 -201 -67 -212 -76 -2 -1 14 -38 34 -83 24 -52 43 -81 51
-79 15 2 28 -24 162 -343 45 -107 86 -199 89 -203 6 -6 177 46 189 58 2 2 -18
71 -43 155 l-47 152 33 34 c18 18 35 31 40 29 4 -3 9 1 12 9 5 12 1 12 -29 0
-19 -8 -34 -13 -34 -10 0 2 16 21 36 42 19 22 43 51 52 67 19 32 32 35 32 7 0
-17 3 -18 26 -9 26 9 25 8 -9 -30 -20 -22 -43 -53 -52 -70 -9 -18 -21 -28 -29
-25 -29 11 -36 -111 -8 -165 46 -92 143 -99 235 -18 31 28 34 37 11 37 -12 0
-14 5 -8 18 4 9 9 49 11 87 4 59 1 77 -19 115 -13 25 -22 54 -20 64 3 12 12 1
30 -36 25 -49 27 -63 27 -193 1 -174 12 -258 32 -251 16 6 99 30 159 45 l41
11 -20 85 c-11 47 -18 88 -15 90 3 3 92 -28 199 -68 l195 -73 29 90 c28 83 33
91 74 118 25 15 49 28 53 28 4 0 8 -37 8 -81 l0 -81 43 6 c23 3 75 8 115 12
l72 7 0 88 c0 49 2 89 5 89 3 0 17 -7 30 -16 13 -9 29 -13 34 -9 11 6 15 -5
31 -113 l12 -72 51 6 c133 17 132 17 129 52 -2 24 1 32 12 32 12 0 16 -10 16
-40 l0 -40 44 0 c24 0 64 -3 90 -6 43 -6 47 -9 42 -29 -5 -21 -2 -22 71 -29
133 -11 152 -9 158 16 35 145 163 723 161 725 -1 2 -51 10 -111 18 -113 16
-124 14 -125 -25 -1 -12 -3 -12 -14 2 -9 13 -47 23 -132 37 -65 10 -122 16
-125 12 -4 -3 -10 -23 -13 -43 -6 -31 -4 -38 10 -38 12 0 15 -6 10 -22 -3 -13
-6 -37 -6 -54 0 -30 -2 -32 -47 -38 -27 -3 -62 -15 -80 -26 l-32 -19 -10 37
c-5 20 -20 76 -32 125 -20 75 -26 87 -45 87 -11 0 -49 3 -83 6 -53 6 -61 5
-61 -10 0 -16 -11 -17 -120 -10 l-120 7 -2 -29 c0 -16 -1 -41 -1 -56 0 -16 0
-28 -1 -28 -1 0 -34 17 -74 38 l-73 39 91 33 c50 19 89 39 86 45 -2 5 -18 47
-36 93 -17 45 -32 82 -33 82 -1 0 -43 -30 -93 -67z m113 -102 c-6 -2 -53 -19
-104 -37 l-92 -33 -15 24 c-15 23 -14 24 82 84 l97 60 22 -47 c16 -34 19 -48
10 -51z m-186 -77 c2 2 17 6 33 10 26 6 28 5 17 -8 -11 -13 -10 -17 3 -22 32
-12 15 -21 -26 -13 -138 27 -263 -43 -313 -174 -13 -34 -21 -44 -27 -35 -6 8
-8 -14 -6 -59 2 -40 3 -73 1 -73 -2 0 -54 22 -61 26 -5 2 52 119 60 122 4 2 8
13 8 25 0 17 -6 12 -26 -21 -44 -74 -39 -37 11 75 54 122 59 131 53 87 -4 -31
-4 -31 26 -22 17 6 54 21 81 34 28 13 65 27 84 30 21 5 36 14 39 26 4 17 6 17
22 3 9 -8 19 -13 21 -11z m-343 -11 c26 -15 48 -27 50 -28 1 -1 -29 -70 -68
-154 -38 -83 -70 -155 -70 -159 0 -4 36 -25 80 -47 59 -29 82 -46 91 -67 17
-41 77 -98 129 -122 33 -15 65 -21 121 -21 l77 1 -14 -38 c-25 -73 -11 -74
-238 18 -114 47 -210 84 -212 82 -1 -2 10 -53 27 -113 16 -61 29 -111 29 -112
0 -4 -133 -44 -136 -40 -12 11 -27 126 -28 217 -2 84 -7 115 -25 155 -12 28
-34 102 -48 165 -14 63 -28 129 -32 145 -4 17 -13 30 -21 30 -19 0 -35 24 -24
35 5 4 37 17 71 28 l62 20 29 -86 29 -87 34 103 c18 56 35 102 37 102 2 0 24
-12 50 -27z m823 -50 c-3 -76 -4 -77 -16 -43 -24 69 -26 88 -9 104 8 9 18 16
22 16 4 0 5 -35 3 -77z m110 38 c4 -3 19 -59 33 -123 21 -90 25 -122 16 -137
-47 -89 -16 -286 51 -321 31 -17 18 -33 -39 -45 l-51 -12 -5 36 c-3 20 -11 81
-17 135 l-12 99 -22 -44 c-23 -43 -24 -73 -3 -34 11 19 11 19 19 0 4 -11 8
-31 8 -45 0 -24 -1 -24 -11 -4 -5 12 -27 27 -49 34 -21 7 -39 18 -40 24 0 6
-6 -5 -13 -23 -16 -44 -24 -30 -18 32 l4 49 35 -37 c19 -20 36 -35 39 -33 2 2
-19 26 -46 53 l-50 49 0 -131 0 -131 -74 -4 -75 -3 -3 65 c-4 60 -2 67 24 95
15 17 28 35 28 41 0 6 -14 29 -31 52 -29 40 -31 47 -39 189 -5 82 -10 156 -10
166 0 15 11 17 93 17 l92 0 29 -98 c16 -53 32 -104 37 -112 4 -8 5 38 2 103
l-6 117 49 -6 c27 -4 52 -9 55 -13z m388 -3 c47 -9 65 -18 71 -33 4 -11 18
-84 31 -163 24 -142 39 -180 39 -99 0 40 28 288 33 294 6 6 147 -20 147 -28 0
-10 -128 -539 -147 -607 -16 -57 -16 -57 -95 -46 l-46 6 4 132 4 131 -42 -113
-43 -113 -57 3 c-73 3 -76 20 -13 82 56 55 86 121 93 203 5 71 -14 136 -51
171 -20 19 -22 28 -17 96 4 68 3 76 -12 76 -10 0 -18 4 -18 8 0 16 14 23 35
18 11 -2 49 -10 84 -18z m-1431 -11 c21 36 25 1 7 -53 l-18 -54 -13 36 c-7 20
-15 48 -19 62 -6 26 -6 26 13 8 19 -17 21 -17 30 1z m1575 -89 c-7 -57 -14
-112 -16 -123 -2 -18 -23 89 -34 178 -5 36 9 52 21 25 4 -10 9 -8 18 5 7 9 16
17 19 17 3 0 0 -46 -8 -102z m-1008 47 c32 -17 60 -34 62 -40 1 -5 -40 -71
-91 -145 -52 -74 -91 -136 -87 -138 12 -4 116 43 151 68 15 11 31 20 34 20 3
0 24 -25 47 -55 l42 -56 -32 -33 c-95 -98 -267 -130 -380 -72 -119 62 -179
242 -118 356 46 88 129 132 242 127 54 -2 83 -9 130 -32z m114 -47 c0 -51 -2
-58 -10 -39 -9 23 -10 23 -29 6 -23 -21 -26 -14 -8 15 10 16 10 24 0 41 -12
18 -11 19 7 10 16 -9 21 -7 26 9 11 34 15 22 14 -42z m671 -95 c78 -88 53
-261 -50 -357 -22 -20 -40 -44 -41 -54 0 -13 -3 -11 -9 6 -10 23 -55 32 -62
11 -9 -28 -99 86 -98 123 1 7 10 -6 21 -29 28 -56 60 -77 114 -70 58 6 98 37
125 94 48 102 36 228 -28 284 -25 23 -32 33 -23 42 6 6 12 20 13 32 0 11 3 4
5 -15 3 -19 17 -49 33 -67z m-1724 43 c91 -42 113 -103 70 -191 -25 -49 -115
-145 -137 -145 -16 0 -10 -30 32 -178 22 -79 38 -146 35 -149 -7 -7 -119 -53
-121 -50 -1 1 -46 112 -100 247 -122 304 -129 320 -152 314 -14 -4 -22 5 -35
40 l-17 45 52 24 c48 23 86 34 192 56 73 16 128 12 181 -13z m1038 -49 c4 -51
3 -57 -9 -47 -12 10 -23 7 -56 -15 -26 -17 -37 -30 -30 -34 7 -5 -4 -16 -28
-29 -67 -38 -78 -28 -31 28 20 23 28 28 24 15 -7 -24 40 27 88 97 18 25 34 45
35 45 1 -1 4 -28 7 -60z m473 3 c8 0 24 5 35 11 16 9 12 0 -14 -32 -52 -64
-61 -86 -68 -164 l-7 -70 -1 65 c-1 37 6 82 14 105 19 48 19 51 10 95 -5 31
-5 32 6 13 6 -13 17 -23 25 -23z m188 -6 c54 -58 54 -204 1 -285 -26 -39 -78
-69 -121 -69 -62 0 -113 98 -101 194 16 135 153 234 221 160z m-597 -163 l32
-45 -30 -31 c-16 -17 -30 -42 -30 -55 l-1 -25 -14 25 c-13 23 -11 27 16 55 16
17 29 37 29 44 0 7 -20 40 -45 72 -46 61 -56 81 -30 59 12 -10 16 -9 22 6 6
15 9 9 13 -21 3 -22 20 -60 38 -84z m-549 -19 c1 -9 -6 -9 -29 3 -35 18 -40
29 -8 20 16 -6 20 -4 15 8 -3 8 -3 18 1 22 7 6 19 -25 21 -53z m-322 -4 c40
-45 53 -125 33 -199 -24 -84 -126 -127 -185 -76 -26 22 -29 31 -29 78 0 66 36
141 89 187 42 38 64 40 92 10z m394 -85 c48 -50 129 -76 214 -69 39 3 81 8 95
11 22 6 23 5 10 -7 -9 -7 -22 -33 -30 -58 -7 -25 -18 -49 -23 -55 -7 -7 -7 -3
-3 10 4 11 10 34 13 50 l5 30 -77 -3 c-109 -5 -188 31 -239 109 -27 41 -36 68
-11 34 9 -11 29 -34 46 -52z m1203 -45 c-6 -42 -5 -160 0 -166 2 -1 23 -6 47
-11 l44 -9 -43 -1 c-33 -1 -48 5 -68 24 -14 14 -29 25 -34 25 -13 0 -13 0 14
61 13 30 27 69 31 87 10 46 15 40 9 -10z m-1324 -43 c50 -27 50 -29 2 -16 -29
9 -32 8 -32 -12 0 -27 -15 -11 -24 26 -8 33 -4 33 54 2z"/>
<path d="M1539 881 c-48 -15 -69 -32 -89 -71 -24 -47 -25 -81 -5 -120 14 -26
52 -57 60 -48 1 2 35 52 74 113 49 76 67 111 58 116 -23 13 -72 17 -98 10z
m73 -19 c16 -6 15 -9 -3 -32 -10 -14 -17 -18 -13 -9 3 11 -3 23 -18 33 -21 15
-21 16 -3 15 11 0 28 -3 37 -7z m-32 -26 c0 -4 -21 -36 -77 -123 -10 -16 -13
-16 -22 -3 -31 45 17 130 73 130 14 0 26 -2 26 -4z m-75 -146 c8 7 15 8 15 2
0 -5 -7 -15 -15 -22 -12 -10 -18 -10 -30 0 -8 7 -15 17 -15 22 0 6 7 5 15 -2
12 -10 18 -10 30 0z"/>
<path d="M605 710 c-8 -12 25 -110 36 -110 16 0 81 70 77 82 -10 30 -99 51
-113 28z m59 -30 c4 -5 3 -16 -2 -27 -10 -17 -11 -16 -21 8 -5 15 -16 30 -23
33 -7 3 -2 3 12 0 14 -4 29 -10 34 -14z"/>
<path d="M2311 751 c-26 -36 -26 -56 -1 -81 22 -22 79 -27 98 -8 7 7 11 32 11
57 -1 26 -4 36 -6 24 -7 -37 -29 -48 -58 -29 -27 18 -32 35 -13 54 9 9 9 12 1
12 -7 0 -21 -13 -32 -29z m48 -59 c20 -11 25 -12 32 -1 4 8 11 10 15 6 11 -10
-16 -37 -38 -37 -35 0 -58 19 -58 48 1 23 3 25 13 12 7 -8 23 -21 36 -28z"/>
<path d="M868 543 c-24 -26 -23 -70 1 -83 26 -14 74 -13 89 2 15 15 16 84 2
93 -6 4 -10 -5 -10 -20 0 -47 -55 -41 -62 7 -3 20 -3 20 -20 1z m45 -52 c14
-6 27 -4 36 3 11 8 13 8 10 -3 -8 -23 -34 -34 -63 -27 -30 7 -42 27 -31 54 6
16 7 16 17 -1 5 -10 19 -22 31 -26z"/>
<path d="M2791 281 c-17 -11 -7 -41 12 -41 19 0 40 26 32 40 -8 12 -25 13 -44
1z"/>
</g>
</svg>
